<svg width="372" height="334" viewBox="0 0 372 334" fill="none" xmlns="http://www.w3.org/2000/svg">
<g filter="url(#filter0_i_1817_295)">
<rect x="93" y="32" width="191" height="191" rx="39" fill="#FF0970"/>
</g>
<rect x="181.898" y="60" width="12.6141" height="135.151" rx="5" fill="white"/>
<mask id="path-3-outside-1_1817_295" maskUnits="userSpaceOnUse" x="133" y="64.0625" width="110" height="124" fill="black">
<rect fill="white" x="133" y="64.0625" width="110" height="124"/>
<path fill-rule="evenodd" clip-rule="evenodd" d="M145.751 114.606L206.333 75.2341C209.91 72.9094 214.155 77.0508 211.919 80.6841L192.335 112.515L216.534 124.17C216.595 124.199 216.655 124.23 216.714 124.262L230.102 130.71C232.912 132.063 233.161 135.968 230.546 137.668L169.964 177.039C166.387 179.364 162.142 175.223 164.377 171.589L183.968 139.75L176.791 136.293C176.345 136.078 175.957 135.792 175.634 135.454C175.162 135.413 174.69 135.288 174.241 135.071L146.195 121.563C143.385 120.21 143.136 116.305 145.751 114.606Z"/>
</mask>
<path fill-rule="evenodd" clip-rule="evenodd" d="M145.751 114.606L206.333 75.2341C209.91 72.9094 214.155 77.0508 211.919 80.6841L192.335 112.515L216.534 124.17C216.595 124.199 216.655 124.23 216.714 124.262L230.102 130.71C232.912 132.063 233.161 135.968 230.546 137.668L169.964 177.039C166.387 179.364 162.142 175.223 164.377 171.589L183.968 139.75L176.791 136.293C176.345 136.078 175.957 135.792 175.634 135.454C175.162 135.413 174.69 135.288 174.241 135.071L146.195 121.563C143.385 120.21 143.136 116.305 145.751 114.606Z" fill="white"/>
<path d="M206.333 75.2341L200.884 66.8492L200.884 66.8492L206.333 75.2341ZM145.751 114.606L151.2 122.991L151.2 122.991L145.751 114.606ZM211.919 80.6841L203.402 75.4438L203.402 75.4438L211.919 80.6841ZM192.335 112.515L183.818 107.274L178.009 116.714L187.995 121.524L192.335 112.515ZM216.534 124.17L212.195 133.179L212.195 133.179L216.534 124.17ZM216.714 124.262L211.932 133.044L212.151 133.164L212.375 133.272L216.714 124.262ZM230.102 130.71L234.441 121.701L234.441 121.701L230.102 130.71ZM230.546 137.668L225.097 129.283L225.097 129.283L230.546 137.668ZM169.964 177.039L164.515 168.655L164.515 168.655L169.964 177.039ZM164.377 171.589L155.86 166.349L155.86 166.349L164.377 171.589ZM183.968 139.75L192.485 144.99L198.293 135.55L188.307 130.74L183.968 139.75ZM176.791 136.293L172.452 145.303L172.452 145.303L176.791 136.293ZM175.634 135.454L182.865 128.546L180.254 125.813L176.488 125.49L175.634 135.454ZM174.241 135.071L178.58 126.062L178.58 126.062L174.241 135.071ZM146.195 121.563L141.855 130.573L141.855 130.573L146.195 121.563ZM200.884 66.8492L140.301 106.221L151.2 122.991L211.782 83.6189L200.884 66.8492ZM220.436 85.9245C228.261 73.2076 213.403 58.713 200.884 66.8492L211.782 83.6189C206.417 87.1058 200.049 80.894 203.402 75.4438L220.436 85.9245ZM200.852 117.755L220.436 85.9245L203.402 75.4438L183.818 107.274L200.852 117.755ZM187.995 121.524L212.195 133.179L220.873 115.16L196.674 103.505L187.995 121.524ZM212.195 133.179C212.106 133.137 212.018 133.092 211.932 133.044L221.497 115.48C221.293 115.369 221.085 115.262 220.873 115.16L212.195 133.179ZM234.441 121.701L221.054 115.253L212.375 133.272L225.763 139.72L234.441 121.701ZM235.995 146.053C245.147 140.105 244.275 126.437 234.441 121.701L225.763 139.72C221.548 137.69 221.174 131.832 225.097 129.283L235.995 146.053ZM175.413 185.424L235.995 146.053L225.097 129.283L164.515 168.655L175.413 185.424ZM155.86 166.349C148.036 179.066 162.894 193.561 175.413 185.424L164.515 168.655C169.88 165.168 176.248 171.38 172.894 176.83L155.86 166.349ZM175.451 134.509L155.86 166.349L172.894 176.83L192.485 144.99L175.451 134.509ZM188.307 130.74L181.13 127.284L172.452 145.303L179.628 148.759L188.307 130.74ZM181.13 127.284C181.783 127.598 182.371 128.029 182.865 128.546L168.403 142.361C169.543 143.554 170.907 144.559 172.452 145.303L181.13 127.284ZM169.902 144.081C171.463 144.833 173.118 145.275 174.78 145.417L176.488 125.49C177.206 125.552 177.918 125.743 178.58 126.062L169.902 144.081ZM141.855 130.573L169.902 144.081L178.58 126.062L150.534 112.554L141.855 130.573ZM140.301 106.221C131.149 112.169 132.022 125.837 141.855 130.573L150.534 112.554C154.748 114.584 155.122 120.442 151.2 122.991L140.301 106.221Z" fill="#FF0970" mask="url(#path-3-outside-1_1817_295)"/>
<path d="M38.636 294H24.6445V257.636H38.494C42.2345 257.636 45.466 258.364 48.1886 259.82C50.9229 261.264 53.0299 263.348 54.5096 266.07C56.0011 268.781 56.7468 272.03 56.7468 275.818C56.7468 279.606 56.007 282.861 54.5273 285.584C53.0477 288.295 50.9525 290.378 48.2418 291.834C45.5311 293.278 42.3292 294 38.636 294ZM34.5167 285.619H38.2809C40.0801 285.619 41.613 285.329 42.8796 284.749C44.158 284.169 45.1287 283.169 45.7915 281.749C46.4663 280.328 46.8036 278.351 46.8036 275.818C46.8036 273.285 46.4603 271.308 45.7738 269.888C45.0991 268.467 44.1048 267.467 42.7908 266.887C41.4888 266.307 39.8907 266.017 37.9968 266.017H34.5167V285.619ZM95.0417 275.818C95.0417 279.866 94.2546 283.281 92.6802 286.063C91.1059 288.833 88.9811 290.934 86.3059 292.366C83.6307 293.787 80.6478 294.497 77.3571 294.497C74.0427 294.497 71.0479 293.781 68.3727 292.349C65.7093 290.905 63.5905 288.798 62.0162 286.028C60.4537 283.246 59.6724 279.843 59.6724 275.818C59.6724 271.77 60.4537 268.361 62.0162 265.591C63.5905 262.809 65.7093 260.708 68.3727 259.288C71.0479 257.855 74.0427 257.139 77.3571 257.139C80.6478 257.139 83.6307 257.855 86.3059 259.288C88.9811 260.708 91.1059 262.809 92.6802 265.591C94.2546 268.361 95.0417 271.77 95.0417 275.818ZM84.8855 275.818C84.8855 273.64 84.5955 271.805 84.0154 270.314C83.4473 268.811 82.6009 267.674 81.4764 266.905C80.3637 266.124 78.9906 265.733 77.3571 265.733C75.7235 265.733 74.3445 266.124 73.22 266.905C72.1073 267.674 71.2609 268.811 70.6809 270.314C70.1127 271.805 69.8287 273.64 69.8287 275.818C69.8287 277.996 70.1127 279.837 70.6809 281.34C71.2609 282.832 72.1073 283.968 73.22 284.749C74.3445 285.519 75.7235 285.903 77.3571 285.903C78.9906 285.903 80.3637 285.519 81.4764 284.749C82.6009 283.968 83.4473 282.832 84.0154 281.34C84.5955 279.837 84.8855 277.996 84.8855 275.818ZM98.1094 294V257.636H107.982V286.045H122.683V294H98.1094ZM125.174 294V257.636H135.046V286.045H149.748V294H125.174ZM161.684 294H151.031L163.034 257.636H176.528L188.531 294H177.877L169.923 267.651H169.639L161.684 294ZM159.696 279.653H179.724V287.04H159.696V279.653ZM190.533 294V257.636H206.229C208.928 257.636 211.29 258.128 213.314 259.11C215.338 260.093 216.912 261.507 218.037 263.354C219.161 265.2 219.724 267.414 219.724 269.994C219.724 272.598 219.144 274.794 217.983 276.582C216.835 278.369 215.22 279.719 213.136 280.63C211.065 281.541 208.644 281.997 205.874 281.997H196.499V274.327H203.885C205.046 274.327 206.034 274.185 206.851 273.901C207.679 273.605 208.313 273.137 208.751 272.498C209.2 271.859 209.425 271.024 209.425 269.994C209.425 268.953 209.2 268.106 208.751 267.455C208.313 266.792 207.679 266.307 206.851 265.999C206.034 265.68 205.046 265.52 203.885 265.52H200.405V294H190.533ZM211.84 277.31L220.931 294H210.206L201.329 277.31H211.84ZM222.432 294V257.636H238.128C240.827 257.636 243.188 258.169 245.212 259.234C247.236 260.3 248.811 261.797 249.935 263.727C251.06 265.656 251.622 267.911 251.622 270.491C251.622 273.096 251.042 275.351 249.882 277.256C248.734 279.162 247.118 280.63 245.035 281.66C242.963 282.69 240.542 283.205 237.773 283.205H228.398V275.534H235.784C236.944 275.534 237.932 275.333 238.749 274.93C239.578 274.516 240.211 273.93 240.649 273.173C241.099 272.415 241.324 271.521 241.324 270.491C241.324 269.45 241.099 268.562 240.649 267.828C240.211 267.082 239.578 266.514 238.749 266.124C237.932 265.721 236.944 265.52 235.784 265.52H232.304V294H222.432ZM258.649 294H247.996L259.999 257.636H273.493L285.496 294H274.842L266.888 267.651H266.604L258.649 294ZM256.661 279.653H276.689V287.04H256.661V279.653ZM319.738 271.273H309.724C309.653 270.444 309.463 269.692 309.156 269.018C308.86 268.343 308.445 267.763 307.913 267.278C307.392 266.781 306.759 266.402 306.013 266.141C305.267 265.869 304.421 265.733 303.474 265.733C301.817 265.733 300.414 266.135 299.266 266.94C298.129 267.745 297.265 268.899 296.673 270.403C296.093 271.906 295.803 273.711 295.803 275.818C295.803 278.044 296.099 279.908 296.691 281.411C297.295 282.903 298.165 284.027 299.301 284.785C300.438 285.531 301.805 285.903 303.403 285.903C304.314 285.903 305.131 285.791 305.853 285.566C306.575 285.329 307.202 284.992 307.735 284.554C308.268 284.116 308.7 283.589 309.031 282.974C309.375 282.346 309.605 281.642 309.724 280.861L319.738 280.932C319.62 282.471 319.188 284.039 318.442 285.637C317.696 287.223 316.637 288.691 315.263 290.04C313.902 291.378 312.215 292.455 310.203 293.272C308.191 294.089 305.853 294.497 303.19 294.497C299.852 294.497 296.857 293.781 294.205 292.349C291.566 290.916 289.476 288.809 287.938 286.028C286.411 283.246 285.647 279.843 285.647 275.818C285.647 271.77 286.428 268.361 287.991 265.591C289.553 262.809 291.66 260.708 294.312 259.288C296.963 257.855 299.923 257.139 303.19 257.139C305.486 257.139 307.599 257.453 309.528 258.08C311.458 258.708 313.151 259.625 314.607 260.832C316.063 262.028 317.234 263.502 318.122 265.254C319.01 267.005 319.549 269.012 319.738 271.273ZM321.722 265.591V257.636H353.328V265.591H342.39V294H332.66V265.591H321.722Z" fill="black"/>
<defs>
<filter id="filter0_i_1817_295" x="93" y="12" width="191" height="211" filterUnits="userSpaceOnUse" color-interpolation-filters="sRGB">
<feFlood flood-opacity="0" result="BackgroundImageFix"/>
<feBlend mode="normal" in="SourceGraphic" in2="BackgroundImageFix" result="shape"/>
<feColorMatrix in="SourceAlpha" type="matrix" values="0 0 0 0 0 0 0 0 0 0 0 0 0 0 0 0 0 0 127 0" result="hardAlpha"/>
<feOffset dy="-20"/>
<feGaussianBlur stdDeviation="25"/>
<feComposite in2="hardAlpha" operator="arithmetic" k2="-1" k3="1"/>
<feColorMatrix type="matrix" values="0 0 0 0 0 0 0 0 0 0 0 0 0 0 0 0 0 0 0.1 0"/>
<feBlend mode="normal" in2="shape" result="effect1_innerShadow_1817_295"/>
</filter>
</defs>
</svg>
